{"title":"Son of Saul 2015 BDRip ENG Subs Xvid AC3","uid":14607994,"size":1323905044,"categoryP":"video","categoryS":"movies","magnet":"?xt=urn:btih:1752cafcbf5a54ae71deedb404a5c4e69cb9b549&amp;dn=Son+of+Saul+2015+BDRip+ENG+Subs+Xvid+AC3&amp;tr=udp%3A%2F%2Ftracker.leechers-paradise.org%3A6969&amp;tr=udp%3A%2F%2Fzer0day.ch%3A1337&amp;tr=udp%3A%2F%2Fopen.demonii.com%3A1337&amp;tr=udp%3A%2F%2Ftracker.coppersurfer.tk%3A6969&amp;tr=udp%3A%2F%2Fexodus.desync.com%3A6969","seeders":23,"leechers":5,"uploader":"Pongydog","files":2,"time":1463106258,"description":"http://www.imdb.com/title/tt3808342/\r\n\r\nIn the horror of 1944 Auschwitz, a prisoner forced to burn the corpses of his own people finds moral survival upon trying to salvage from the flames the body of a boy he takes for his son. \r\n\r\nDirector: László Nemes  \r\n\r\nWriters: László Nemes,  Clara Royer  \r\n\r\nStars: Géza Röhrig,  Levente Molnár,  Urs Rechn  \r\n\r\n\r\n\r\n--------------\r\nGeneral\r\nComplete name                            : C:Usersuser1VideosSon of Saul 2015 ENG SUBS BDRip XviD AC3-pong.avi\r\nFormat                                   : AVI\r\nFormat/Info                              : Audio Video Interleave\r\nFormat profile                           : OpenDML\r\nFile size                                : 1.23 GiB\r\nDuration                                 : 1h 47mn\r\nOverall bit rate                         : 1 647 Kbps\r\nWriting application                      : Lavf57.36.100\r\n\r\nVideo\r\nID                                       : 0\r\nFormat                                   : MPEG-4 Visual\r\nFormat profile                           :   \r\nFormat settings, BVOP                    : No\r\nFormat settings, QPel                    : No\r\nFormat settings, GMC                     : No warppoints\r\nFormat settings, Matrix                  : Default (H.263)\r\nCodec ID                                 : XVID\r\nCodec ID/Hint                            : XviD\r\nDuration                                 : 1h 47mn\r\nBit rate                                 : 1 250 Kbps\r\nWidth                                    : 720 pixels\r\nHeight                                   : 522 pixels\r\nDisplay aspect ratio                     : 1.378\r\nOriginal display aspect ratio            : 1.379\r\nFrame rate                               : 23.976 (24000/1001) fps\r\nColor space                              : YUV\r\nChroma subsampling                       : 4:2:0\r\nBit depth                                : 8 bits\r\nScan type                                : Progressive\r\nCompression mode                         : Lossy\r\nBits/(Pixel*Frame)                       : 0.139\r\nStream size                              : 958 MiB (76%)\r\nWriting library                          : XviD 67\r\n\r\nAudio\r\nID                                       : 1\r\nFormat                                   : AC-3\r\nFormat/Info                              : Audio Coding 3\r\nCodec ID                                 : 00001000-0000-0020-8000-00AA00389B71\r\nDuration                                 : 1h 47mn\r\nBit rate                                 : 384 Kbps\r\nChannel(s)                               : 6 channels\r\nChannel positions                        : Front: L C R, Side: L R, LFE\r\nSampling rate                            : 48.0 KHz\r\nBit depth                                : 16 bits\r\nCompression mode                         : Lossy\r\nStream size                              : 294 MiB (23%)\r\nInterleave, duration                     : 32 ms (0.77 video frame)","torrent":{"xt":"urn:btih:1752cafcbf5a54ae71deedb404a5c4e69cb9b549","amp;dn":"Son+of+Saul+2015+BDRip+ENG+Subs+Xvid+AC3","amp;tr":["udp%3A%2F%2Ftracker.leechers-paradise.org%3A6969","udp%3A%2F%2Fzer0day.ch%3A1337","udp%3A%2F%2Fopen.demonii.com%3A1337","udp%3A%2F%2Ftracker.coppersurfer.tk%3A6969","udp%3A%2F%2Fexodus.desync.com%3A6969"],"infoHash":"1752cafcbf5a54ae71deedb404a5c4e69cb9b549","infoHashBuffer":{"type":"Buffer","data":[23,82,202,252,191,90,84,174,113,222,237,180,4,165,196,230,156,185,181,73]},"announce":[],"urlList":[]}}